<svg width="12" height="12" viewBox="0 0 12 12" fill="none" xmlns="http://www.w3.org/2000/svg">
<path fill-rule="evenodd" clip-rule="evenodd" d="M5.26399 1.14165C5.48864 1.01517 5.74209 0.94873 5.99989 0.94873C6.25769 0.94873 6.51114 1.01517 6.73579 1.14165C6.96043 1.26813 7.14869 1.45037 7.28239 1.67079L7.28383 1.67316L11.5229 8.75004C11.6539 8.97686 11.7232 9.23405 11.7239 9.49596C11.7246 9.75788 11.6568 10.0154 11.5271 10.243C11.3974 10.4705 11.2103 10.6601 10.9846 10.793C10.7589 10.9258 10.5023 10.9972 10.2404 11.0001L10.2349 11.0001L1.75939 11.0001C1.49749 10.9972 1.24091 10.9258 1.01517 10.793C0.789437 10.6601 0.602415 10.4705 0.472713 10.243C0.343011 10.0154 0.275151 9.75788 0.275885 9.49596C0.276618 9.23405 0.345919 8.97689 0.476893 8.75007L0.4809 8.74313L4.71738 1.67078C4.85108 1.45036 5.03935 1.26813 5.26399 1.14165ZM5.99989 1.94873C5.91395 1.94873 5.82947 1.97088 5.75459 2.01304C5.68005 2.05501 5.61752 2.11539 5.57299 2.18842L1.34123 9.25302C1.29864 9.32791 1.27612 9.41257 1.27588 9.49876C1.27564 9.58607 1.29826 9.67192 1.34149 9.74776C1.38472 9.82361 1.44707 9.88682 1.52231 9.9311C1.5969 9.97498 1.68159 9.99876 1.76809 10.0001H10.2317C10.3182 9.99876 10.4029 9.97498 10.4775 9.9311C10.5527 9.88682 10.6151 9.82361 10.6583 9.74776C10.7015 9.67191 10.7241 9.58607 10.7239 9.49876C10.7237 9.41258 10.7011 9.32793 10.6586 9.25304L6.42739 2.18942C6.42719 2.18908 6.42699 2.18875 6.42678 2.18842C6.38225 2.11539 6.31973 2.05501 6.24519 2.01304C6.17031 1.97088 6.08582 1.94873 5.99989 1.94873Z" fill="black"/>
<path fill-rule="evenodd" clip-rule="evenodd" d="M6 4C6.27614 4 6.5 4.22386 6.5 4.5V6.5C6.5 6.77614 6.27614 7 6 7C5.72386 7 5.5 6.77614 5.5 6.5V4.5C5.5 4.22386 5.72386 4 6 4Z" fill="black"/>
<path fill-rule="evenodd" clip-rule="evenodd" d="M5.5 8.5C5.5 8.22386 5.72386 8 6 8H6.005C6.28114 8 6.505 8.22386 6.505 8.5C6.505 8.77614 6.28114 9 6.005 9H6C5.72386 9 5.5 8.77614 5.5 8.5Z" fill="black"/>
</svg>
