<svg width="20" height="20" viewBox="0 0 20 20" fill="none" xmlns="http://www.w3.org/2000/svg">
<path fill-rule="evenodd" clip-rule="evenodd" d="M3.23223 1.56556C3.70107 1.09672 4.33696 0.833332 5 0.833332H11.6667C11.8877 0.833332 12.0996 0.921129 12.2559 1.07741L17.2559 6.07741C17.4122 6.23369 17.5 6.44565 17.5 6.66667V16.6667C17.5 17.3297 17.2366 17.9656 16.7678 18.4344C16.2989 18.9033 15.663 19.1667 15 19.1667H5C4.33696 19.1667 3.70107 18.9033 3.23223 18.4344C2.76339 17.9656 2.5 17.3297 2.5 16.6667V3.33333C2.5 2.67029 2.76339 2.03441 3.23223 1.56556ZM5 2.5C4.77899 2.5 4.56702 2.5878 4.41074 2.74408C4.25446 2.90036 4.16667 3.11232 4.16667 3.33333V16.6667C4.16667 16.8877 4.25446 17.0996 4.41074 17.2559C4.56702 17.4122 4.77899 17.5 5 17.5H15C15.221 17.5 15.433 17.4122 15.5893 17.2559C15.7455 17.0996 15.8333 16.8877 15.8333 16.6667V7.01184L11.3215 2.5H5Z" fill="black"/>
<path fill-rule="evenodd" clip-rule="evenodd" d="M11.6667 0.833332C12.1269 0.833332 12.5 1.20643 12.5 1.66667V5.83333H16.6667C17.1269 5.83333 17.5 6.20643 17.5 6.66667C17.5 7.1269 17.1269 7.5 16.6667 7.5H11.6667C11.2064 7.5 10.8333 7.1269 10.8333 6.66667V1.66667C10.8333 1.20643 11.2064 0.833332 11.6667 0.833332Z" fill="black"/>
<path fill-rule="evenodd" clip-rule="evenodd" d="M10 9.16667C10.4602 9.16667 10.8333 9.53976 10.8333 10V15C10.8333 15.4602 10.4602 15.8333 10 15.8333C9.53976 15.8333 9.16667 15.4602 9.16667 15V10C9.16667 9.53976 9.53976 9.16667 10 9.16667Z" fill="black"/>
<path fill-rule="evenodd" clip-rule="evenodd" d="M6.66667 12.5C6.66667 12.0398 7.03976 11.6667 7.5 11.6667H12.5C12.9602 11.6667 13.3333 12.0398 13.3333 12.5C13.3333 12.9602 12.9602 13.3333 12.5 13.3333H7.5C7.03976 13.3333 6.66667 12.9602 6.66667 12.5Z" fill="black"/>
</svg>
