<svg width="18" height="18" viewBox="0 0 18 18" fill="none" xmlns="http://www.w3.org/2000/svg">
<path fill-rule="evenodd" clip-rule="evenodd" d="M2.99985 3C2.80094 3 2.61018 3.07902 2.46952 3.21967C2.32887 3.36032 2.24985 3.55109 2.24985 3.75V14.25C2.24985 14.4489 2.32887 14.6397 2.46952 14.7803C2.61018 14.921 2.80094 15 2.99985 15H14.9999C15.1988 15 15.3895 14.921 15.5302 14.7803C15.6708 14.6397 15.7499 14.4489 15.7499 14.25V6C15.7499 5.80109 15.6708 5.61032 15.5302 5.46967C15.3895 5.32902 15.1988 5.25 14.9999 5.25H8.24985C7.99909 5.25 7.76491 5.12467 7.62581 4.91603L6.34846 3H2.99985ZM1.40886 2.15901C1.83082 1.73705 2.40312 1.5 2.99985 1.5H6.74985C7.00062 1.5 7.23479 1.62533 7.37389 1.83397L8.65124 3.75H14.9999C15.5966 3.75 16.1689 3.98705 16.5908 4.40901C17.0128 4.83097 17.2499 5.40326 17.2499 6V14.25C17.2499 14.8467 17.0128 15.419 16.5908 15.841C16.1689 16.2629 15.5966 16.5 14.9999 16.5H2.99985C2.40312 16.5 1.83082 16.2629 1.40886 15.841C0.986906 15.419 0.749853 14.8467 0.749853 14.25V3.75C0.749853 3.15326 0.986906 2.58097 1.40886 2.15901Z" fill="black"/>
</svg>
