<svg width="24" height="24" viewBox="0 0 24 24" fill="none" xmlns="http://www.w3.org/2000/svg">
<path fill-rule="evenodd" clip-rule="evenodd" d="M12.8012 4.33714C12.2765 4.19507 11.7235 4.19507 11.1988 4.33714C10.6396 4.48853 10.1076 4.88436 8.71226 5.96959L6.23206 7.89863C5.33358 8.59745 5.00155 8.86395 4.76559 9.18297C4.54385 9.48278 4.37866 9.82052 4.27815 10.1796C4.17119 10.5617 4.16467 10.9874 4.16467 12.1257V14.4818C4.16467 15.5626 4.16526 16.3282 4.21417 16.9268C4.26236 17.5167 4.35372 17.8782 4.49881 18.163C4.79273 18.7398 5.26172 19.2088 5.83857 19.5027C6.12333 19.6478 6.48482 19.7392 7.07471 19.7874C7.67336 19.8363 8.43891 19.8369 9.51978 19.8369H14.4802C15.561 19.8369 16.3266 19.8363 16.9252 19.7874C17.5151 19.7392 17.8766 19.6478 18.1614 19.5027C18.7382 19.2088 19.2072 18.7398 19.5011 18.163C19.6462 17.8782 19.7376 17.5167 19.7858 16.9268C19.8347 16.3282 19.8353 15.5626 19.8353 14.4818V12.1257C19.8353 10.9874 19.8288 10.5617 19.7218 10.1796C19.6213 9.82052 19.4561 9.48278 19.2344 9.18297C18.9984 8.86395 18.6664 8.59745 17.7679 7.89863L15.2877 5.96959C13.8924 4.88436 13.3603 4.48853 12.8012 4.33714ZM10.8067 2.88927C11.5882 2.6777 12.4118 2.6777 13.1932 2.88927C14.0809 3.12963 14.864 3.7391 16.0706 4.67814C16.116 4.71348 16.162 4.74929 16.2086 4.78556L18.6888 6.7146C18.7179 6.73723 18.7466 6.75956 18.775 6.78162C19.5573 7.38984 20.0667 7.78583 20.4403 8.291C20.7706 8.7375 21.0166 9.2405 21.1663 9.77529C21.3356 10.3804 21.3355 11.0255 21.3353 12.0165C21.3353 12.0525 21.3353 12.0888 21.3353 12.1257V14.5146C21.3353 15.5553 21.3353 16.3821 21.2808 17.049C21.225 17.7316 21.1084 18.3125 20.8376 18.8439C20.3999 19.703 19.7015 20.4015 18.8424 20.8392C18.3109 21.11 17.73 21.2266 17.0474 21.2824C16.3805 21.3369 15.5537 21.3369 14.5131 21.3369H9.48689C8.44626 21.3369 7.61945 21.3369 6.95256 21.2824C6.26991 21.2266 5.68904 21.11 5.15758 20.8392C4.29849 20.4015 3.60003 19.703 3.1623 18.8439C2.89151 18.3125 2.77493 17.7316 2.71915 17.049C2.66466 16.3821 2.66467 15.5553 2.66467 14.5146L2.66467 12.1257C2.66467 12.0888 2.66467 12.0525 2.66466 12.0165C2.66444 11.0256 2.6643 10.3804 2.83367 9.7753C2.98336 9.2405 3.22937 8.7375 3.55961 8.291C3.93325 7.78583 4.44261 7.38984 5.22497 6.78161C5.25334 6.75956 5.28206 6.73723 5.31115 6.7146L7.79135 4.78556C7.83799 4.74928 7.884 4.71347 7.92941 4.67813C9.13595 3.73909 9.91902 3.12963 10.8067 2.88927ZM8.38821 16.7712C8.38821 16.357 8.72399 16.0212 9.13821 16.0212H14.8617C15.276 16.0212 15.6117 16.357 15.6117 16.7712C15.6117 17.1854 15.276 17.5212 14.8617 17.5212H9.13821C8.72399 17.5212 8.38821 17.1854 8.38821 16.7712Z" fill="black"/>
</svg>
