<svg width="18" height="18" viewBox="0 0 18 18" fill="none" xmlns="http://www.w3.org/2000/svg">
<path fill-rule="evenodd" clip-rule="evenodd" d="M3.75 3C3.33579 3 3 3.33579 3 3.75V14.25C3 14.6642 3.33579 15 3.75 15H14.25C14.6642 15 15 14.6642 15 14.25V3.75C15 3.33579 14.6642 3 14.25 3H3.75ZM1.5 3.75C1.5 2.50736 2.50736 1.5 3.75 1.5H14.25C15.4926 1.5 16.5 2.50736 16.5 3.75V14.25C16.5 15.4926 15.4926 16.5 14.25 16.5H3.75C2.50736 16.5 1.5 15.4926 1.5 14.25V3.75Z" fill="black"/>
<path fill-rule="evenodd" clip-rule="evenodd" d="M6.37514 6.00014C6.16804 6.00014 6.00014 6.16804 6.00014 6.37514C6.00014 6.58225 6.16804 6.75014 6.37514 6.75014C6.58225 6.75014 6.75014 6.58225 6.75014 6.37514C6.75014 6.16804 6.58225 6.00014 6.37514 6.00014ZM4.50014 6.37514C4.50014 5.33961 5.33961 4.50014 6.37514 4.50014C7.41068 4.50014 8.25014 5.33961 8.25014 6.37514C8.25014 7.41068 7.41068 8.25014 6.37514 8.25014C5.33961 8.25014 4.50014 7.41068 4.50014 6.37514Z" fill="black"/>
<path fill-rule="evenodd" clip-rule="evenodd" d="M11.4695 6.96981C11.7624 6.67692 12.2373 6.67692 12.5302 6.96981L16.2802 10.7198C16.5731 11.0127 16.5731 11.4876 16.2802 11.7805C15.9873 12.0734 15.5124 12.0734 15.2195 11.7805L11.9999 8.5608L4.28018 16.2805C3.98729 16.5734 3.51242 16.5734 3.21952 16.2805C2.92663 15.9876 2.92663 15.5127 3.21952 15.2198L11.4695 6.96981Z" fill="black"/>
</svg>
