<svg width="16" height="17" viewBox="0 0 16 17" fill="none" xmlns="http://www.w3.org/2000/svg">
<path fill-rule="evenodd" clip-rule="evenodd" d="M8 2.5C4.68629 2.5 2 5.18629 2 8.5C2 11.8137 4.68629 14.5 8 14.5C11.3137 14.5 14 11.8137 14 8.5C14 5.18629 11.3137 2.5 8 2.5ZM0.666667 8.5C0.666667 4.44991 3.94991 1.16667 8 1.16667C12.0501 1.16667 15.3333 4.44991 15.3333 8.5C15.3333 12.5501 12.0501 15.8333 8 15.8333C3.94991 15.8333 0.666667 12.5501 0.666667 8.5Z" fill="black"/>
<path fill-rule="evenodd" clip-rule="evenodd" d="M8 6.5C6.89543 6.5 6 7.39543 6 8.5C6 9.60457 6.89543 10.5 8 10.5C9.10457 10.5 10 9.60457 10 8.5C10 7.39543 9.10457 6.5 8 6.5ZM4.66667 8.5C4.66667 6.65905 6.15905 5.16667 8 5.16667C9.84095 5.16667 11.3333 6.65905 11.3333 8.5C11.3333 10.341 9.84095 11.8333 8 11.8333C6.15905 11.8333 4.66667 10.341 4.66667 8.5Z" fill="black"/>
<path fill-rule="evenodd" clip-rule="evenodd" d="M2.81538 3.31522C3.07573 3.05487 3.49784 3.05487 3.75819 3.31522L6.58486 6.14188C6.8452 6.40223 6.8452 6.82434 6.58486 7.08469C6.32451 7.34504 5.9024 7.34504 5.64205 7.08469L2.81538 4.25802C2.55503 3.99767 2.55503 3.57556 2.81538 3.31522Z" fill="black"/>
<path fill-rule="evenodd" clip-rule="evenodd" d="M9.41531 9.91531C9.67566 9.65496 10.0978 9.65496 10.3581 9.91531L13.1848 12.742C13.4451 13.0023 13.4451 13.4244 13.1848 13.6848C12.9244 13.9451 12.5023 13.9451 12.242 13.6848L9.41531 10.8581C9.15496 10.5978 9.15496 10.1757 9.41531 9.91531Z" fill="black"/>
<path fill-rule="evenodd" clip-rule="evenodd" d="M13.1848 3.31522C13.4451 3.57556 13.4451 3.99767 13.1848 4.25802L10.3581 7.08469C10.0978 7.34504 9.67566 7.34504 9.41531 7.08469C9.15496 6.82434 9.15496 6.40223 9.41531 6.14188L12.242 3.31522C12.5023 3.05487 12.9244 3.05487 13.1848 3.31522Z" fill="black"/>
<path fill-rule="evenodd" clip-rule="evenodd" d="M12.7115 3.78852C12.9718 4.04887 12.9718 4.47098 12.7115 4.73133L10.3581 7.08467C10.0978 7.34502 9.67566 7.34502 9.41531 7.08467C9.15496 6.82432 9.15496 6.40221 9.41531 6.14186L11.7686 3.78852C12.029 3.52817 12.4511 3.52817 12.7115 3.78852Z" fill="black"/>
<path fill-rule="evenodd" clip-rule="evenodd" d="M6.58486 9.91531C6.8452 10.1757 6.8452 10.5978 6.58486 10.8581L3.75819 13.6848C3.49784 13.9451 3.07573 13.9451 2.81538 13.6848C2.55503 13.4244 2.55503 13.0023 2.81538 12.742L5.64205 9.91531C5.9024 9.65496 6.32451 9.65496 6.58486 9.91531Z" fill="black"/>
</svg>
