<svg width="16" height="17" viewBox="0 0 16 17" fill="none" xmlns="http://www.w3.org/2000/svg">
<path fill-rule="evenodd" clip-rule="evenodd" d="M4.66654 4.5C4.66654 4.13181 4.96502 3.83333 5.3332 3.83333H13.9999C14.3681 3.83333 14.6665 4.13181 14.6665 4.5C14.6665 4.86819 14.3681 5.16667 13.9999 5.16667H5.3332C4.96502 5.16667 4.66654 4.86819 4.66654 4.5Z" fill="black"/>
<path fill-rule="evenodd" clip-rule="evenodd" d="M4.66654 8.5C4.66654 8.13181 4.96502 7.83334 5.3332 7.83334H13.9999C14.3681 7.83334 14.6665 8.13181 14.6665 8.5C14.6665 8.86819 14.3681 9.16667 13.9999 9.16667H5.3332C4.96502 9.16667 4.66654 8.86819 4.66654 8.5Z" fill="black"/>
<path fill-rule="evenodd" clip-rule="evenodd" d="M4.66654 12.5C4.66654 12.1318 4.96502 11.8333 5.3332 11.8333H13.9999C14.3681 11.8333 14.6665 12.1318 14.6665 12.5C14.6665 12.8682 14.3681 13.1667 13.9999 13.1667H5.3332C4.96502 13.1667 4.66654 12.8682 4.66654 12.5Z" fill="black"/>
<path fill-rule="evenodd" clip-rule="evenodd" d="M1.33333 4.5C1.33333 4.13181 1.63181 3.83333 2 3.83333H2.00667C2.37486 3.83333 2.67333 4.13181 2.67333 4.5C2.67333 4.86819 2.37486 5.16667 2.00667 5.16667H2C1.63181 5.16667 1.33333 4.86819 1.33333 4.5Z" fill="black"/>
<path fill-rule="evenodd" clip-rule="evenodd" d="M1.33333 8.5C1.33333 8.13181 1.63181 7.83334 2 7.83334H2.00667C2.37486 7.83334 2.67333 8.13181 2.67333 8.5C2.67333 8.86819 2.37486 9.16667 2.00667 9.16667H2C1.63181 9.16667 1.33333 8.86819 1.33333 8.5Z" fill="black"/>
<path fill-rule="evenodd" clip-rule="evenodd" d="M1.33333 12.5C1.33333 12.1318 1.63181 11.8333 2 11.8333H2.00667C2.37486 11.8333 2.67333 12.1318 2.67333 12.5C2.67333 12.8682 2.37486 13.1667 2.00667 13.1667H2C1.63181 13.1667 1.33333 12.8682 1.33333 12.5Z" fill="black"/>
</svg>
