<svg width="18" height="18" viewBox="0 0 18 18" fill="none" xmlns="http://www.w3.org/2000/svg">
<path fill-rule="evenodd" clip-rule="evenodd" d="M3.75 3C3.33579 3 3 3.33579 3 3.75V14.25C3 14.6642 3.33579 15 3.75 15H14.25C14.6642 15 15 14.6642 15 14.25V3.75C15 3.33579 14.6642 3 14.25 3H3.75ZM1.5 3.75C1.5 2.50736 2.50736 1.5 3.75 1.5H14.25C15.4926 1.5 16.5 2.50736 16.5 3.75V14.25C16.5 15.4926 15.4926 16.5 14.25 16.5H3.75C2.50736 16.5 1.5 15.4926 1.5 14.25V3.75Z" fill="black"/>
<path fill-rule="evenodd" clip-rule="evenodd" d="M6.75 1.5C7.16421 1.5 7.5 1.83579 7.5 2.25V15.75C7.5 16.1642 7.16421 16.5 6.75 16.5C6.33579 16.5 6 16.1642 6 15.75V2.25C6 1.83579 6.33579 1.5 6.75 1.5Z" fill="black"/>
</svg>
