<svg width="16" height="16" viewBox="0 0 16 16" fill="none" xmlns="http://www.w3.org/2000/svg">
<path fill-rule="evenodd" clip-rule="evenodd" d="M0.97644 10.3096C1.60156 9.68452 2.44941 9.33333 3.33346 9.33333H8.6668C9.55085 9.33333 10.3987 9.68452 11.0238 10.3096C11.6489 10.9348 12.0001 11.7826 12.0001 12.6667V14C12.0001 14.3682 11.7017 14.6667 11.3335 14.6667C10.9653 14.6667 10.6668 14.3682 10.6668 14V12.6667C10.6668 12.1362 10.4561 11.6275 10.081 11.2525C9.70594 10.8774 9.19723 10.6667 8.6668 10.6667H3.33346C2.80303 10.6667 2.29432 10.8774 1.91925 11.2525C1.54418 11.6275 1.33346 12.1362 1.33346 12.6667V14C1.33346 14.3682 1.03499 14.6667 0.666796 14.6667C0.298607 14.6667 0.0001297 14.3682 0.0001297 14V12.6667C0.0001297 11.7826 0.351319 10.9348 0.97644 10.3096Z" fill="black"/>
<path fill-rule="evenodd" clip-rule="evenodd" d="M5.99987 2.66667C4.8953 2.66667 3.99987 3.5621 3.99987 4.66667C3.99987 5.77123 4.8953 6.66667 5.99987 6.66667C7.10444 6.66667 7.99987 5.77123 7.99987 4.66667C7.99987 3.5621 7.10444 2.66667 5.99987 2.66667ZM2.66654 4.66667C2.66654 2.82572 4.15892 1.33333 5.99987 1.33333C7.84082 1.33333 9.3332 2.82572 9.3332 4.66667C9.3332 6.50761 7.84082 8 5.99987 8C4.15892 8 2.66654 6.50761 2.66654 4.66667Z" fill="black"/>
<path fill-rule="evenodd" clip-rule="evenodd" d="M12.6877 9.91985C12.7798 9.56336 13.1434 9.34898 13.4999 9.44102C14.215 9.62566 14.8485 10.0426 15.301 10.6263C15.7535 11.21 15.9993 11.9275 15.9999 12.666L15.9999 13.9999C15.9999 14.368 15.7014 14.6665 15.3332 14.6665C14.965 14.6665 14.6665 14.368 14.6665 13.9999V12.6667C14.6661 12.2237 14.5187 11.7933 14.2472 11.4432C13.9757 11.0929 13.5956 10.8428 13.1665 10.732C12.81 10.64 12.5957 10.2764 12.6877 9.91985Z" fill="black"/>
<path fill-rule="evenodd" clip-rule="evenodd" d="M10.021 1.92116C10.1123 1.56448 10.4755 1.34937 10.8322 1.44069C11.5492 1.62427 12.1847 2.04128 12.6385 2.62595C13.0924 3.21062 13.3387 3.92972 13.3387 4.66986C13.3387 5.41 13.0924 6.12909 12.6385 6.71377C12.1847 7.29844 11.5492 7.71544 10.8322 7.89902C10.4755 7.99035 10.1123 7.77523 10.021 7.41855C9.92964 7.06187 10.1448 6.69868 10.5014 6.60736C10.9316 6.49721 11.313 6.24701 11.5853 5.8962C11.8576 5.5454 12.0054 5.11394 12.0054 4.66986C12.0054 4.22577 11.8576 3.79432 11.5853 3.44351C11.313 3.09271 10.9316 2.84251 10.5014 2.73236C10.1448 2.64103 9.92964 2.27785 10.021 1.92116Z" fill="black"/>
</svg>
