<svg width="18" height="18" viewBox="0 0 18 18" fill="none" xmlns="http://www.w3.org/2000/svg">
<g clip-path="url(#clip0_2_37)">
<path fill-rule="evenodd" clip-rule="evenodd" d="M17.5933 4.58327C17.8431 4.71183 18.0001 4.96921 18.0001 5.25015V12.7501C18.0001 13.0311 17.8431 13.2885 17.5933 13.417C17.3435 13.5456 17.0428 13.5237 16.8142 13.3604L11.5642 9.61045C11.3671 9.46966 11.2501 9.24236 11.2501 9.00015C11.2501 8.75793 11.3671 8.53063 11.5642 8.38985L16.8142 4.63985C17.0428 4.47655 17.3435 4.45472 17.5933 4.58327ZM13.2905 9.00015L16.5001 11.2928V6.70754L13.2905 9.00015Z" fill="black"/>
<path fill-rule="evenodd" clip-rule="evenodd" d="M2.25014 4.49985C1.83593 4.49985 1.50014 4.83564 1.50014 5.24986V12.7499C1.50014 13.1641 1.83593 13.4999 2.25014 13.4999H10.5001C10.9144 13.4999 11.2501 13.1641 11.2501 12.7499V5.24986C11.2501 4.83564 10.9144 4.49985 10.5001 4.49985H2.25014ZM0.000144958 5.24986C0.000144958 4.00721 1.0075 2.99986 2.25014 2.99986H10.5001C11.7428 2.99986 12.7501 4.00721 12.7501 5.24986V12.7499C12.7501 13.9925 11.7428 14.9999 10.5001 14.9999H2.25014C1.0075 14.9999 0.000144958 13.9925 0.000144958 12.7499V5.24986Z" fill="black"/>
</g>
<defs>
<clipPath id="clip0_2_37">
<rect width="18" height="18" fill="white"/>
</clipPath>
</defs>
</svg>
