<svg width="24" height="24" viewBox="0 0 24 24" fill="none" xmlns="http://www.w3.org/2000/svg">
<g clip-path="url(#clip0_110_35478)">
<path d="M18.75 0H5.25C2.3505 0 0 2.3505 0 5.25V8.00002H24V5.25C24 2.3505 21.6495 0 18.75 0Z" fill="#82AFFF"/>
<path d="M0 18.75C0 21.6495 2.3505 24 5.25 24H18.75C21.6495 24 24 21.6495 24 18.75V16H0V18.75Z" fill="#73AF00"/>
<path d="M24 8.00016H0V16.0003H24V8.00016Z" fill="#F5F5F5"/>
<path d="M24 7.28953H0V8.28708H24V7.28953Z" fill="#FF4B55"/>
<path d="M24 15.713H0V16.7105H24V15.713Z" fill="#FF4B55"/>
<path d="M5.68066 5.99522C4.38766 5.99522 3.33963 4.94962 3.33963 3.66126C3.33963 2.36817 4.38766 1.31794 5.68066 1.31794C5.68558 1.31794 5.69051 1.31798 5.69543 1.31803C5.77151 1.31906 5.79822 1.21791 5.73115 1.18195C5.33299 0.968577 4.87858 0.84778 4.39549 0.851202C2.84838 0.862265 1.59171 2.1443 1.60807 3.69136C1.62429 5.22253 2.87604 6.46191 4.41565 6.46191C4.89213 6.46191 5.34012 6.34139 5.73326 6.13092C5.80015 6.09511 5.7731 5.99391 5.69726 5.99508C5.69172 5.99517 5.68619 5.99522 5.68066 5.99522Z" fill="#F5F5F5"/>
<path d="M7.51398 5.3498L7.4094 5.6633L7.07893 5.66587C7.03614 5.6662 7.01842 5.72081 7.05282 5.74622L7.3187 5.94253L7.219 6.25762C7.20611 6.29841 7.25256 6.33216 7.28734 6.30727L7.55622 6.11508L7.82509 6.30727C7.85992 6.33216 7.90637 6.29841 7.89343 6.25762L7.79373 5.94253L8.05956 5.74622C8.09397 5.72081 8.07625 5.6662 8.03345 5.66587L7.70298 5.6633L7.5984 5.3498C7.58495 5.3092 7.52753 5.3092 7.51398 5.3498Z" fill="#F5F5F5"/>
<path d="M9.33864 5.3498L9.23411 5.6633L8.90364 5.66587C8.86084 5.6662 8.84313 5.72081 8.87753 5.74622L9.14341 5.94253L9.0437 6.25762C9.03081 6.29841 9.07722 6.33216 9.11205 6.30727L9.38092 6.11508L9.6498 6.30727C9.68463 6.33216 9.73108 6.29841 9.71814 6.25762L9.61844 5.94253L9.88431 5.74622C9.91872 5.72081 9.901 5.6662 9.8582 5.66587L9.52774 5.6633L9.42316 5.3498C9.40961 5.3092 9.35219 5.3092 9.33864 5.3498Z" fill="#F5F5F5"/>
<path d="M13.0418 5.3498L12.9372 5.6633L12.6068 5.66587C12.564 5.6662 12.5463 5.72081 12.5807 5.74622L12.8465 5.94253L12.7468 6.25762C12.7339 6.29841 12.7803 6.33216 12.8152 6.30727L13.084 6.11508L13.3529 6.30727C13.3878 6.33216 13.4342 6.29841 13.4213 6.25762L13.3216 5.94253L13.5874 5.74622C13.6218 5.72081 13.6041 5.6662 13.5613 5.66587L13.2309 5.6633L13.1263 5.3498C13.1127 5.3092 13.0553 5.3092 13.0418 5.3498Z" fill="#F5F5F5"/>
<path d="M14.8582 5.3498L14.7536 5.6633L14.4232 5.66587C14.3804 5.6662 14.3627 5.72081 14.3971 5.74622L14.6629 5.94253L14.5632 6.25762C14.5503 6.29841 14.5968 6.33216 14.6316 6.30727L14.9005 6.11508L15.1693 6.30727C15.2042 6.33216 15.2506 6.29841 15.2377 6.25762L15.138 5.94253L15.4038 5.74622C15.4383 5.72081 15.4205 5.6662 15.3777 5.66587L15.0473 5.6633L14.9427 5.3498C14.9291 5.3092 14.8717 5.3092 14.8582 5.3498Z" fill="#F5F5F5"/>
<path d="M9.33864 3.17672L9.23411 3.49022L8.90364 3.4928C8.86084 3.49312 8.84313 3.54773 8.87753 3.57314L9.14341 3.76945L9.0437 4.08455C9.03081 4.12533 9.07722 4.15908 9.11205 4.13423L9.38092 3.94205L9.6498 4.13423C9.68463 4.15912 9.73108 4.12537 9.71814 4.08459L9.61844 3.7695L9.88431 3.57319C9.91872 3.54778 9.901 3.49317 9.8582 3.49284L9.52774 3.49026L9.42316 3.17676C9.40961 3.13612 9.35219 3.13612 9.33864 3.17672Z" fill="#F5F5F5"/>
<path d="M11.202 3.17672L11.0974 3.49022L10.7669 3.4928C10.7241 3.49312 10.7064 3.54773 10.7408 3.57314L11.0067 3.76945L10.907 4.08455C10.8941 4.12533 10.9405 4.15908 10.9753 4.13423L11.2442 3.94205L11.5131 4.13423C11.5479 4.15912 11.5944 4.12537 11.5814 4.08459L11.4817 3.7695L11.7476 3.57319C11.782 3.54778 11.7643 3.49317 11.7215 3.49284L11.391 3.49026L11.2864 3.17676C11.2729 3.13612 11.2155 3.13612 11.202 3.17672Z" fill="#F5F5F5"/>
<path d="M13.0418 3.17672L12.9372 3.49022L12.6068 3.4928C12.564 3.49312 12.5463 3.54773 12.5807 3.57314L12.8465 3.76945L12.7468 4.08455C12.7339 4.12533 12.7803 4.15908 12.8152 4.13423L13.084 3.94205L13.3529 4.13423C13.3878 4.15912 13.4342 4.12537 13.4213 4.08459L13.3216 3.7695L13.5874 3.57319C13.6218 3.54778 13.6041 3.49317 13.5613 3.49284L13.2309 3.49026L13.1263 3.17676C13.1127 3.13612 13.0553 3.13612 13.0418 3.17672Z" fill="#F5F5F5"/>
<path d="M14.8582 3.17672L14.7536 3.49022L14.4232 3.4928C14.3804 3.49312 14.3627 3.54773 14.3971 3.57314L14.6629 3.76945L14.5632 4.08455C14.5503 4.12533 14.5968 4.15908 14.6316 4.13423L14.9005 3.94205L15.1693 4.13423C15.2042 4.15912 15.2506 4.12537 15.2377 4.08459L15.138 3.7695L15.4038 3.57319C15.4383 3.54778 15.4205 3.49317 15.3777 3.49284L15.0473 3.49026L14.9427 3.17676C14.9291 3.13612 14.8717 3.13612 14.8582 3.17672Z" fill="#F5F5F5"/>
<path d="M11.202 5.3498L11.0974 5.6633L10.7669 5.66587C10.7241 5.6662 10.7064 5.72081 10.7408 5.74622L11.0067 5.94253L10.907 6.25762C10.8941 6.29841 10.9405 6.33216 10.9753 6.30727L11.2442 6.11508L11.5131 6.30727C11.5479 6.33216 11.5944 6.29841 11.5814 6.25762L11.4817 5.94253L11.7476 5.74622C11.782 5.72081 11.7643 5.6662 11.7215 5.66587L11.391 5.6633L11.2864 5.3498C11.2729 5.3092 11.2155 5.3092 11.202 5.3498Z" fill="#F5F5F5"/>
<path d="M11.202 1.00369L11.0974 1.31719L10.7669 1.31977C10.7241 1.32009 10.7064 1.3747 10.7408 1.40011L11.0067 1.59642L10.907 1.91152C10.8941 1.9523 10.9405 1.98605 10.9753 1.96116L11.2442 1.76897L11.5131 1.96116C11.5479 1.98605 11.5944 1.9523 11.5814 1.91152L11.4817 1.59642L11.7476 1.40011C11.782 1.3747 11.7643 1.32009 11.7215 1.31977L11.391 1.31719L11.2864 1.00369C11.2729 0.963093 11.2155 0.963093 11.202 1.00369Z" fill="#F5F5F5"/>
<path d="M13.0418 5.3498L12.9372 5.6633L12.6068 5.66587C12.564 5.6662 12.5463 5.72081 12.5807 5.74622L12.8465 5.94253L12.7468 6.25762C12.7339 6.29841 12.7803 6.33216 12.8152 6.30727L13.084 6.11508L13.3529 6.30727C13.3878 6.33216 13.4342 6.29841 13.4213 6.25762L13.3216 5.94253L13.5874 5.74622C13.6218 5.72081 13.6041 5.6662 13.5613 5.66587L13.2309 5.6633L13.1263 5.3498C13.1127 5.3092 13.0553 5.3092 13.0418 5.3498Z" fill="#F5F5F5"/>
<path d="M14.8582 5.3498L14.7536 5.6633L14.4232 5.66587C14.3804 5.6662 14.3627 5.72081 14.3971 5.74622L14.6629 5.94253L14.5632 6.25762C14.5503 6.29841 14.5968 6.33216 14.6316 6.30727L14.9005 6.11508L15.1693 6.30727C15.2042 6.33216 15.2506 6.29841 15.2377 6.25762L15.138 5.94253L15.4038 5.74622C15.4383 5.72081 15.4205 5.6662 15.3777 5.66587L15.0473 5.6633L14.9427 5.3498C14.9291 5.3092 14.8717 5.3092 14.8582 5.3498Z" fill="#F5F5F5"/>
<path d="M13.0418 1.00369L12.9372 1.31719L12.6068 1.31977C12.564 1.32009 12.5463 1.3747 12.5807 1.40011L12.8465 1.59642L12.7468 1.91152C12.7339 1.9523 12.7803 1.98605 12.8152 1.96116L13.084 1.76897L13.3529 1.96116C13.3878 1.98605 13.4342 1.9523 13.4213 1.91152L13.3216 1.59642L13.5874 1.40011C13.6218 1.3747 13.6041 1.32009 13.5613 1.31977L13.2309 1.31719L13.1263 1.00369C13.1127 0.963093 13.0553 0.963093 13.0418 1.00369Z" fill="#F5F5F5"/>
<path d="M14.8582 1.00369L14.7536 1.31719L14.4232 1.31977C14.3804 1.32009 14.3627 1.3747 14.3971 1.40011L14.6629 1.59642L14.5632 1.91152C14.5503 1.9523 14.5968 1.98605 14.6316 1.96116L14.9005 1.76897L15.1693 1.96116C15.2042 1.98605 15.2506 1.9523 15.2377 1.91152L15.138 1.59642L15.4038 1.40011C15.4383 1.3747 15.4205 1.32009 15.3777 1.31977L15.0473 1.31719L14.9427 1.00369C14.9291 0.963093 14.8717 0.963093 14.8582 1.00369Z" fill="#F5F5F5"/>
</g>
<defs>
<clipPath id="clip0_110_35478">
<rect width="24" height="24" fill="white"/>
</clipPath>
</defs>
</svg>
